<svg width="30" height="27" viewBox="0 0 30 27" fill="none" xmlns="http://www.w3.org/2000/svg">
<path d="M14.2969 2.92188L14.9473 3.62501L15.6504 2.92305C17.6133 1.00997 20.332 0.139265 23.0039 0.583991C27.041 1.25665 30 4.75001 30 8.84571V9.18555C30 11.6172 28.9922 13.9434 27.2109 15.6016L16.623 25.4863C16.1836 25.8965 15.6035 26.125 15 26.125C14.3965 26.125 13.8164 25.8965 13.377 25.4863L2.78848 15.6016C1.00957 13.9434 0 11.6172 0 9.18555V8.84571C0 4.75001 2.96016 1.25665 6.99609 0.583991C9.61523 0.139265 12.3867 1.00997 14.2969 2.92188C14.2441 2.92188 14.2969 2.92247 14.2969 2.92188ZM14.9473 7.60352L12.3105 4.86133C11.0391 3.64141 9.23438 3.06251 7.45898 3.35782C4.77832 3.80489 2.8125 6.12696 2.8125 8.84571V9.18555C2.8125 10.8379 3.49863 12.4199 4.70742 13.5449L15 23.1543L25.2949 13.5449C26.502 12.4199 27.1875 10.8379 27.1875 9.18555V8.84571C27.1875 6.12696 25.2188 3.80489 22.541 3.35782C20.7656 3.06251 18.9609 3.64141 17.6895 4.86133L14.9473 7.60352Z" fill="#780000"/>
</svg>
