<svg width="46" height="46" viewBox="0 0 46 46" fill="none" xmlns="http://www.w3.org/2000/svg">
<path d="M42.2607 0.13647L13.5134 8.62581C12.9299 8.80911 12.42 9.17375 12.0579 9.66672C11.6958 10.1597 11.5004 10.7553 11.5 11.3669V34.853C10.5586 34.6245 9.59375 34.5063 8.625 34.5008C3.86328 34.5008 0 37.0757 0 40.2508C0 43.4259 3.86328 46.0008 8.625 46.0008C13.3867 46.0008 17.25 43.4259 17.25 40.2508V19.2561L40.25 12.5178V29.1039C39.3087 28.8746 38.3438 28.7561 37.375 28.7508C32.6133 28.7508 28.75 31.3257 28.75 34.5008C28.75 37.6759 32.6133 40.2508 37.375 40.2508C42.1367 40.2508 46 37.6768 46 34.5008V2.87581C45.9996 2.42447 45.8929 1.97957 45.6886 1.57711C45.4843 1.17466 45.1881 0.82596 44.824 0.559233C44.4599 0.292506 44.0382 0.115246 43.5928 0.0418005C43.1475 -0.0316452 42.6912 0.000786328 42.2607 0.13647Z" fill="white" fill-opacity="0.7"/>
</svg>
