<svg width="30" height="27" viewBox="0 0 30 27" fill="none" xmlns="http://www.w3.org/2000/svg">
<path d="M0 9.18554V8.84569C0 4.74999 2.96016 1.25663 6.99609 0.58397C9.61523 0.139243 12.3867 1.00995 14.2969 2.92303L15 3.62499L15.6504 2.92303C17.6133 1.00995 20.332 0.139243 23.0039 0.58397C27.041 1.25663 30 4.74999 30 8.84569V9.18554C30 11.6172 28.9922 13.9434 27.2109 15.6016L16.623 25.4863C16.1836 25.8965 15.6035 26.125 15 26.125C14.3965 26.125 13.8164 25.8965 13.377 25.4863L2.78848 15.6016C1.00957 13.9434 1.75781e-05 11.6172 1.75781e-05 9.18554H0Z" fill="#780000"/>
</svg>
